#!OML:ASF E:\emotionWalksFemale\Project 1\Capture day 1\Session 1\Female1.ASF
:FULLY-SPECIFIED
:DEGREES
128
root 9.23115 14.4722 22.112 201.242 4.4321 -179.095
lowerback 20.8195 4.92679 1.0034
upperback -1.33774 6.62983 -1.99285
thorax -12.8266 2.93995 -4.88044
lowerneck -7.62179 -5.35416 -9.83883
upperneck -17.4836 -7.36825 11.1259
head -3.16632 -4.33052 5.11087
rclavicle 6.36111e-015 7.15625e-015
rhumerus -14.1792 19.2273 -53.7899
rradius 49.809
rwrist 2.9685
rhand -5.43043 -53.6386
rfingers 7.12502
rthumb 20.3798 -82.5892
lclavicle 6.36111e-015 7.15625e-015
lhumerus -44.3635 33.7669 26.7332
lradius 31.933
lwrist -11.4787
lhand -8.61882 -21.1319
lfingers 7.12502
lthumb 17.3133 8.1169
rfemur -49.6567 -7.48707 30.058
rtibia 55.9247
rfoot -26.9609 -24.1933
rtoes 2.52735
lfemur -50.6759 3.14552 -18.7946
ltibia 56.1987
lfoot -29.9656 10.3143
ltoes -55.3086
129
root 9.24639 14.4061 22.1088 201.399 4.54557 -179.216
lowerback 21.0041 4.79125 0.975509
upperback -1.46315 6.43658 -2.00458
thorax -13.0945 2.83604 -4.85084
lowerneck -7.09607 -5.14623 -9.64617
upperneck -17.7434 -7.1271 11.0938
head -3.35924 -4.23077 5.1045
rclavicle 1.04163e-013 -2.78299e-014
rhumerus -15.409 19.0178 -54.8749
rradius 49.837
rwrist 3.09801
rhand -4.70678 -54.7578
rfingers 7.12502
rthumb 21.0751 -83.6325
lclavicle 1.04163e-013 -2.78299e-014
lhumerus -42.4044 33.7762 29.5485
lradius 31.7001
lwrist -12.3072
lhand -8.78942 -21.8804
lfingers 7.12502
lthumb 17.1491 7.38276
rfemur -50.5952 -7.56988 30.1043
rtibia 57.3024
rfoot -27.3805 -24.1999
rtoes 2.04253
lfemur -51.4862 3.75475 -19.1485
ltibia 57.3207
lfoot -30.4378 9.96183
ltoes -55.2574
130
root 9.26273 14.3411 22.1049 201.553 4.58966 -179.368
lowerback 21.4658 4.6139 0.962299
upperback -1.28215 6.21059 -2.00968
thorax -13.167 2.73469 -4.81659
lowerneck -8.43321 -5.09301 -9.54335
upperneck -17.5118 -7.06834 11.0467
head -3.09439 -4.2213 5.02202
rclavicle 9.08446e-014 -1.51076e-014
rhumerus -16.0506 18.4449 -55.7601
rradius 49.6448
rwrist 2.59564
rhand -5.34434 -54.2007
rfingers 7.12502
rthumb 20.4625 -83.1424
lclavicle 9.08446e-014 -1.51076e-014
lhumerus -39.6182 34.7128 32.9187
lradius 31.287
lwrist -13.5777
lhand -9.2677 -21.9196
lfingers 7.12502
lthumb 16.6887 7.38302
rfemur -51.5357 -7.76677 30.1683
rtibia 58.6719
rfoot -27.8681 -24.0107
rtoes 2.16136
lfemur -52.3026 4.30372 -19.5305
ltibia 58.4691
lfoot -30.7738 9.94361
ltoes -55.478
131
root 9.27884 14.2803 22.0933 201.58 4.69432 -179.448
lowerback 21.6442 4.42622 0.904558
upperback -1.34111 5.95041 -1.9615
thorax -13.3692 2.61038 -4.67248
lowerneck -8.12966 -4.85243 -9.30786
upperneck -17.7444 -6.79574 10.9759
head -3.25001 -4.11209 4.98856
rclavicle -8.74653e-015 9.93923e-015
rhumerus -17.3561 18.4404 -57.0074
rradius 49.2879
rwrist 2.28493
rhand -6.36487 -53.1842
rfingers 7.12502
rthumb 19.4816 -82.2283
lclavicle -8.74653e-015 9.93923e-015
lhumerus -37.2852 34.952 35.9794
lradius 30.9255
lwrist -14.9554
lhand -9.50021 -21.6884
lfingers 7.12502
lthumb 16.4649 7.63293
rfemur -52.2767 -8.00149 30.326
rtibia 59.998
rfoot -28.0897 -24.0127
rtoes 1.17616
lfemur -52.8733 4.84917 -19.8074
ltibia 59.6106
lfoot -31.0587 10.0394
ltoes -55.7974
132
root 9.29112 14.2182 22.076 201.533 4.89835 -179.472
lowerback 21.6672 4.25491 0.920735
upperback -1.26563 5.73584 -1.9275
thorax -13.312 2.51705 -4.57249
lowerneck -8.03524 -4.71717 -9.08808
upperneck -17.8221 -6.6418 10.9985
head -3.30864 -4.05997 4.96958
rclavicle -1.0297e-013 1.39149e-014
rhumerus -18.5668 18.2031 -58.2231
rradius 48.8951
rwrist 2.18531
rhand -6.75239 -52.4501
rfingers 7.12502
rthumb 19.1089 -81.5314
lclavicle -1.0297e-013 1.39149e-014
lhumerus -34.5297 35.132 39.4162
lradius 30.5524
lwrist -16.206
lhand -9.98135 -21.3725
lfingers 7.12502
lthumb 16.0016 7.98663
rfemur -52.875 -8.19614 30.4866
rtibia 61.2719
rfoot -28.4913 -23.9317
rtoes 1.18903
lfemur -53.3247 5.38933 -20.01
ltibia 60.7653
lfoot -31.6476 9.82401
ltoes -55.5354
133
root 9.29873 14.1578 22.0543 201.513 5.19508 -179.513
lowerback 21.5517 4.06522 0.93361
upperback -1.16216 5.49613 -1.89664
thorax -13.1443 2.41762 -4.45078
lowerneck -8.16639 -4.43994 -8.85772
upperneck -17.8894 -6.3218 10.8377
head -3.3553 -3.92253 4.88842
rclavicle 1.03964e-013 -2.5842e-014
rhumerus -19.8026 17.9519 -59.4181
rradius 48.5705
rwrist 2.31452
rhand -6.61821 -52.0242
rfingers 7.12502
rthumb 19.238 -81.0927
lclavicle 1.03964e-013 -2.5842e-014
lhumerus -31.6046 35.0089 43.1433
lradius 30.2835
lwrist -17.0959
lhand -8.96616 -24.7696
lfingers 7.12502
lthumb 16.979 4.50834
rfemur -53.4752 -8.36052 30.5749
rtibia 62.4897
rfoot -29.0141 -23.6433
rtoes 2.19496
lfemur -53.781 5.92925 -20.2502
ltibia 61.9184
lfoot -32.3011 9.44832
ltoes -54.9524
134
root 9.30415 14.0972 22.0314 201.545 5.61219 -179.512
lowerback 21.3834 3.92347 0.914379
upperback -1.11772 5.30973 -1.84367
thorax -13.0164 2.3416 -4.3029
lowerneck -8.30982 -4.19577 -8.67795
upperneck -17.805 -6.02764 10.6792
head -3.34865 -3.78442 4.80843
rclavicle -8.09054e-014 -1.19271e-015
rhumerus -21.2515 17.8546 -60.5551
rradius 48.3631
rwrist 2.47051
rhand -6.341 -52.2036
rfingers 7.12502
rthumb 19.5045 -81.2453
lclavicle -8.09054e-014 -1.19271e-015
lhumerus -28.5871 34.636 46.9612
lradius 29.8585
lwrist -18.2408
lhand -10.6531 -23.9065
lfingers 7.12502
lthumb 15.3547 5.5034
rfemur -54.1676 -8.46227 30.7183
rtibia 63.6859
rfoot -29.3595 -23.4428
rtoes 3.21621
lfemur -54.2535 6.55098 -20.5021
ltibia 63.0663
lfoot -32.7483 9.02242
ltoes -54.2465
135
root 9.30872 14.0362 22.0133 201.614 6.06177 -179.478
lowerback 21.2582 3.76359 0.882228
upperback -1.12386 5.09488 -1.77729
thorax -12.9757 2.24856 -4.13219
lowerneck -8.45367 -3.96134 -8.50372
upperneck -17.7659 -5.75338 10.5507
head -3.35139 -3.66222 4.74016
rclavicle -2.88238e-014 1.74931e-014
rhumerus -22.8277 17.919 -61.7462
rradius 48.2305
rwrist 2.14618
rhand -5.84649 -52.9501
rfingers 7.12502
rthumb 19.9799 -81.9429
lclavicle -2.88238e-014 1.74931e-014
lhumerus -25.6082 34.2853 50.7405
lradius 29.261
lwrist -19.8877
lhand -11.6116 -24.6019
lfingers 7.12502
lthumb 14.4313 4.87635
rfemur -54.9296 -8.50409 30.9454
rtibia 64.8812
rfoot -29.7549 -23.2284
rtoes 4.9052
lfemur -54.7637 7.18208 -20.7366
ltibia 64.1935
lfoot -32.9732 8.76454
ltoes -53.7534
136
root 9.31296 13.9803 21.9959 201.605 6.47688 -179.413
lowerback 21.2335 3.52633 0.897394
upperback -1.1088 4.79483 -1.68446
thorax -12.9708 2.11341 -3.94011
lowerneck -8.66407 -3.74079 -8.41075
upperneck -17.7257 -5.49039 10.5328
head -3.33448 -3.54959 4.71805
rclavicle -3.39922e-014 6.95746e-015
rhumerus -24.3225 17.9657 -63.048
rradius 47.8932
rwrist 2.02862
rhand -5.18362 -53.6895
rfingers 7.12502
rthumb 20.617 -82.6146
lclavicle -3.39922e-014 6.95746e-015
lhumerus -22.5469 33.6143 54.6043
lradius 28.7085
lwrist -21.2414
lhand -12.0302 -25.855
lfingers 7.12502
lthumb 14.0279 3.65161
rfemur -55.5586 -8.55469 31.2424
rtibia 66.0623
rfoot -30.0986 -23.1604
rtoes 5.09983
lfemur -55.1671 7.7373 -20.9017
ltibia 65.2572
lfoot -33.0695 9.03966
ltoes -54.0742
